<svg width="78" height="78" viewBox="0 0 78 78" fill="none" xmlns="http://www.w3.org/2000/svg">
<g clip-path="url(#clip0_11032_52481)">
<path d="M38.9854 77.9707C60.5164 77.9707 77.9707 60.5164 77.9707 38.9854C77.9707 17.4543 60.5164 0 38.9854 0C17.4543 0 0 17.4543 0 38.9854C0 60.5164 17.4543 77.9707 38.9854 77.9707Z" fill="#1F2A37"/>
<path fill-rule="evenodd" clip-rule="evenodd" d="M56.8253 41.2968L54.5441 31.002C54.3686 30.3586 53.7544 28.1651 51.8242 28.1651H42.5823L40.8861 31.2068C47.057 31.9672 46.0627 35.8277 38.985 35.8277C31.9659 35.8277 30.8253 32.0257 37.1133 31.236L35.3585 28.1651H26.1166C24.1864 28.1651 23.5722 30.3294 23.3967 31.002L21.1448 41.2968H22.8703C23.1335 39.2495 24.8883 37.6702 27.0233 37.6702C29.597 37.6702 31.0008 39.8637 31.2055 41.2968H46.7938V40.1269C46.7938 38.7816 47.9052 37.6995 49.2213 37.6995H52.7601C54.1054 37.6995 55.1875 38.7816 55.1875 40.1269V41.2968H56.8253ZM40.2719 32.3181C39.9502 32.8446 39.687 33.3417 39.5115 33.722C39.3067 34.1314 38.6341 34.1606 38.4586 33.722C38.2831 33.3417 38.0199 32.8446 37.7274 32.3181C35.2708 32.5229 34.1886 33.254 34.1886 33.4295C34.1886 33.7804 35.8557 34.6286 38.985 34.6286C42.1436 34.6286 43.7522 33.722 43.7522 33.4295C43.7522 33.254 42.7286 32.5229 40.2719 32.3181ZM38.985 24.9188C36.6746 24.9188 34.7736 23.0178 34.7736 20.7073C34.7736 18.3676 36.6746 16.4666 38.985 16.4666C41.2955 16.4666 43.1965 18.3676 43.1965 20.6781C43.2258 23.0178 41.3247 24.9188 38.985 24.9188ZM38.985 17.6365C37.2595 17.6365 35.9434 19.011 35.9434 20.6781C35.9434 22.3451 37.318 23.7197 38.985 23.7197C40.6813 23.7197 42.0267 22.3451 42.0267 20.6781C42.0267 19.011 40.6813 17.6365 38.985 17.6365ZM43.2258 27.0538H51.8242C53.696 27.0538 55.1583 28.4576 55.6847 30.7681L57.9074 40.7996C58.0537 40.6533 58.1706 40.5071 58.3169 40.3901C58.2291 39.9222 58.2584 39.2203 58.2584 38.1382C58.2584 37.2608 58.9895 36.5588 59.8377 36.5588C64.3124 36.5588 63.8152 36.0617 63.8152 40.1854C63.8152 40.7411 63.3765 41.1798 62.8208 41.1798C60.949 41.1798 59.8377 41.2675 59.1943 41.1505C58.9018 41.4137 58.6093 41.7647 58.3461 42.0279L60.9783 46.2101C61.0368 46.2979 61.066 46.4149 61.066 46.5319V53.5217C61.9727 53.5802 62.6453 54.3406 62.6453 55.2473V56.6803C62.6161 57.6455 61.8264 58.4059 60.8613 58.4059H59.8377V61.6522C59.9254 62.8806 58.9018 63.8749 57.7027 63.8749H52.8478C51.6195 63.8749 50.5958 62.8806 50.5958 61.6522V58.4059H27.3157V61.6522C27.3742 62.8806 26.4091 63.8749 25.1515 63.8749H20.2966C19.0683 63.8749 18.0739 62.8806 18.0739 61.6522V58.4059H17.138C16.1436 58.4059 15.3832 57.6455 15.3832 56.6803V55.2473C15.3832 54.3406 16.0559 53.6095 16.9333 53.5217C16.9333 52.6151 16.8456 46.6488 16.9918 46.2686C17.138 45.8592 19.2438 42.6713 19.6532 41.9987L18.8343 41.1798C18.2201 41.2383 15.9682 41.1798 15.1785 41.1798C14.6228 41.1798 14.1841 40.7411 14.1841 40.1854C14.1841 36.0617 13.6577 36.5588 18.1324 36.5588C19.039 36.5588 19.7117 37.29 19.7117 38.1382C19.7117 38.6646 19.7994 40.0099 19.6825 40.4194C19.8287 40.5364 19.9457 40.6826 20.0627 40.7996L22.3146 30.7681C22.8411 28.4576 24.3034 27.0538 26.1751 27.0538H34.7151C33.1065 24.1584 32.0829 22.0527 32.0829 20.9998C32.0829 17.1978 35.1538 14.0977 38.985 14.0977C42.7871 14.0977 45.8579 17.1978 45.8579 20.9998C45.8579 22.0527 44.8051 24.1584 43.2258 27.0538ZM38.985 15.2383C35.8264 15.2383 33.2528 17.8119 33.2528 20.9705C33.2528 22.5206 37.5812 29.3935 39.0143 32.1427C40.4181 29.4227 44.7758 22.4914 44.7758 20.9705C44.7173 17.8119 42.1436 15.2383 38.985 15.2383ZM15.354 40.0099H18.6003V38.1382C18.6003 37.9042 18.3956 37.7287 18.1909 37.7287H15.354V40.0099ZM59.4282 40.0099H62.6746V37.7287H59.8962C59.633 37.7287 59.4867 37.9334 59.4867 38.1382V40.0099H59.4282ZM47.9344 41.2968H53.9592V40.1269C53.9592 39.4542 53.4035 38.8693 52.7016 38.8693H49.192C48.4901 38.8693 47.9344 39.4542 47.9344 40.1269V41.2968ZM21.1448 50.6556C19.0098 50.6556 19.0098 47.4385 21.1448 47.4385C23.2505 47.4385 23.309 50.6556 21.1448 50.6556ZM21.1448 48.5499C20.5306 48.5499 20.4721 49.5442 21.1448 49.5442C21.7882 49.5442 21.7882 48.5499 21.1448 48.5499ZM56.8546 50.6556C54.7196 50.6556 54.7196 47.4385 56.8546 47.4385C58.9895 47.4385 58.9895 50.6556 56.8546 50.6556ZM56.8546 48.5499C56.2404 48.5499 56.1819 49.5442 56.8546 49.5442C57.5272 49.5442 57.4687 48.5499 56.8546 48.5499ZM43.6645 51.9717H34.3641C33.6037 51.9717 33.6037 50.8311 34.3641 50.8311H43.6645C44.4541 50.8311 44.3956 51.9717 43.6645 51.9717ZM43.6645 49.4857H34.3641C33.6037 49.4857 33.6037 48.3451 34.3641 48.3451H43.6645C44.4541 48.3451 44.3956 49.4857 43.6645 49.4857ZM45.7702 53.4925V50.1292C45.7702 48.2866 44.2494 46.7366 42.3776 46.7366H35.6217C33.7499 46.7366 32.1999 48.2866 32.1999 50.1292V53.4925H45.7702ZM31.0593 53.4925V50.1292C31.0593 47.6432 33.1065 45.596 35.6217 45.596H42.3484C44.8636 45.596 46.8816 47.6432 46.8816 50.1292V53.4925H59.9254V52.0887H55.48C53.9007 52.0887 52.5846 50.8018 52.5846 49.2225V47.4677C52.5846 46.6488 53.2865 45.9762 54.1054 45.9762H59.4867L57.2933 42.4959H20.7353L18.5126 45.9762H23.8939C24.7128 45.9762 25.3855 46.6488 25.3855 47.4677V49.2225C25.3855 50.8018 24.0986 52.0887 22.5193 52.0887H18.0739V53.4925H31.0593ZM59.9254 47.1168H54.1054C53.9007 47.1168 53.7544 47.263 53.7544 47.4385V49.164C53.7544 50.0999 54.5441 50.8603 55.48 50.8603H59.9254V47.1168ZM18.0739 50.9188H22.5193C23.4552 50.9188 24.2156 50.1292 24.2156 49.2225V47.4677C24.2156 47.263 24.0694 47.146 23.8939 47.146H18.0739V50.9188ZM58.7263 58.4059H51.7364V61.6522C51.7364 62.2079 52.2336 62.7051 52.7893 62.7051H57.6735C58.2291 62.7051 58.7263 62.2079 58.7263 61.6522V58.4059ZM26.1751 58.4059H19.1853V61.6522C19.1853 62.2079 19.6825 62.7051 20.2381 62.7051H25.1223C25.678 62.7051 26.1751 62.2079 26.1751 61.6522V58.4059ZM17.138 54.6916C16.3484 54.6916 16.5531 55.7152 16.5531 56.6803C16.5531 57.002 16.8163 57.236 17.138 57.236H60.8906C61.6802 57.236 61.4755 56.2124 61.4755 55.2473C61.4755 54.6623 60.9198 54.6916 60.5103 54.6916H17.138ZM24.0694 41.2968H29.9772C29.3922 38.0504 24.6836 38.0212 24.0694 41.2968Z" fill="black"/>
<path fill-rule="evenodd" clip-rule="evenodd" d="M58.7262 58.4043H51.7363V61.6506C51.7363 62.2063 52.2335 62.7035 52.7892 62.7035H57.6733C58.229 62.7035 58.7262 62.2063 58.7262 61.6506V58.4043Z" fill="white"/>
<path fill-rule="evenodd" clip-rule="evenodd" d="M17.1381 57.2361H60.8906C61.6803 57.2361 61.4755 56.2125 61.4755 55.2473C61.4755 54.6624 60.9199 54.6916 60.5104 54.6916H17.1381C16.3484 54.6916 16.5532 55.7153 16.5532 56.6804C16.5532 57.0021 16.8164 57.2361 17.1381 57.2361Z" fill="#FFC107"/>
<path fill-rule="evenodd" clip-rule="evenodd" d="M46.8819 50.1274V53.4908H59.9257V52.0869H55.4803C53.901 52.0869 52.5849 50.8001 52.5849 49.2208V47.466C52.5849 46.6471 53.2868 45.9745 54.1057 45.9745H59.487L57.2936 42.4941H20.7356L18.5129 45.9745H23.8942C24.7131 45.9745 25.3858 46.6471 25.3858 47.466V49.2208C25.3858 50.8001 24.099 52.0869 22.5197 52.0869H18.0742V53.4908H31.0596V50.1274C31.0596 47.6415 33.1068 45.5943 35.622 45.5943H42.3487C44.8639 45.5943 46.8819 47.6415 46.8819 50.1274Z" fill="#FFC107"/>
<path fill-rule="evenodd" clip-rule="evenodd" d="M45.7705 53.4922V50.1289C45.7705 48.2864 44.2497 46.7363 42.3779 46.7363H35.622C33.7503 46.7363 32.2002 48.2864 32.2002 50.1289V53.4922H45.7705ZM43.6648 50.8308C44.4544 50.8308 44.3959 51.9714 43.6648 51.9714H34.3644C33.604 51.9714 33.604 50.8308 34.3644 50.8308H43.6648ZM43.6648 49.4855H34.3644C33.604 49.4855 33.604 48.3449 34.3644 48.3449H43.6648C44.4544 48.3449 44.3959 49.4855 43.6648 49.4855Z" fill="white"/>
<path fill-rule="evenodd" clip-rule="evenodd" d="M47.9346 41.2966H53.9593V40.1267C53.9593 39.4541 53.4036 38.8691 52.7017 38.8691H49.1922C48.4903 38.8691 47.9346 39.4541 47.9346 40.1267V41.2966Z" fill="#74939E"/>
<path fill-rule="evenodd" clip-rule="evenodd" d="M46.7946 41.2957V40.1258C46.7946 38.7805 47.9059 37.6984 49.222 37.6984H52.7608C54.1061 37.6984 55.1883 38.7805 55.1883 40.1258V41.2957H56.826L54.5448 31.001C54.3694 30.3575 53.7552 28.1641 51.8249 28.1641H42.5831L40.8868 31.2057C47.0578 31.9661 46.0634 35.8266 38.9858 35.8266C31.9667 35.8266 30.826 32.0246 37.114 31.2349L35.3592 28.1641H26.1174C24.1871 28.1641 23.573 30.3283 23.3975 31.001L21.1455 41.2957H22.871C23.1343 39.2484 24.889 37.6691 27.024 37.6691C29.5977 37.6691 31.0015 39.8626 31.2063 41.2957H46.7946Z" fill="white"/>
<path fill-rule="evenodd" clip-rule="evenodd" d="M38.9849 34.6269C42.1435 34.6269 43.752 33.7202 43.752 33.4278C43.752 33.2523 42.7284 32.5211 40.2717 32.3164C39.95 32.8428 39.6868 33.34 39.5113 33.7202C39.3066 34.1297 38.6339 34.1589 38.4584 33.7202C38.283 33.34 38.0197 32.8428 37.7273 32.3164C35.2706 32.5211 34.1885 33.2523 34.1885 33.4278C34.1885 33.7787 35.8555 34.6269 38.9849 34.6269Z" fill="#C2E6F7"/>
<path fill-rule="evenodd" clip-rule="evenodd" d="M39.0145 32.1427C40.4183 29.4228 44.776 22.4914 44.776 20.9706C44.7175 17.812 42.1438 15.2383 38.9852 15.2383C35.8266 15.2383 33.2529 17.812 33.2529 20.9706C33.2529 22.5206 37.5814 29.3935 39.0145 32.1427ZM38.9852 24.9188C36.6748 24.9188 34.7737 23.0178 34.7737 20.7073C34.7737 18.3676 36.6748 16.4666 38.9852 16.4666C41.2957 16.4666 43.1967 18.3676 43.1967 20.6781C43.2259 23.0178 41.3249 24.9188 38.9852 24.9188Z" fill="#FFC107"/>
<path fill-rule="evenodd" clip-rule="evenodd" d="M38.985 23.718C40.6813 23.718 42.0266 22.3434 42.0266 20.6764C42.0266 19.0093 40.6813 17.6348 38.985 17.6348C37.2594 17.6348 35.9434 19.0093 35.9434 20.6764C35.9434 22.3434 37.3179 23.718 38.985 23.718Z" fill="#FEFEFE"/>
<path fill-rule="evenodd" clip-rule="evenodd" d="M62.6752 37.7285H59.8968C59.6335 37.7285 59.4873 37.9332 59.4873 38.138V40.0097H62.6752V37.7285Z" fill="#FFC107"/>
<path fill-rule="evenodd" clip-rule="evenodd" d="M59.9259 47.1152H54.1058C53.9011 47.1152 53.7549 47.2615 53.7549 47.4369V49.1625C53.7549 50.0984 54.5445 50.8588 55.4804 50.8588H59.9259V47.1152ZM56.855 47.4369C58.99 47.4369 58.99 50.654 56.855 50.654C54.72 50.654 54.72 47.4369 56.855 47.4369Z" fill="white"/>
<path fill-rule="evenodd" clip-rule="evenodd" d="M21.1452 49.5432C21.7886 49.5432 21.7886 48.5488 21.1452 48.5488C20.531 48.5488 20.4725 49.5432 21.1452 49.5432Z" fill="#FCAD39"/>
<path fill-rule="evenodd" clip-rule="evenodd" d="M21.1451 47.437C23.2508 47.437 23.3093 50.6541 21.1451 50.6541C19.0101 50.6541 19.0101 47.437 21.1451 47.437ZM22.5197 50.9173C23.4555 50.9173 24.216 50.1277 24.216 49.221V47.4662C24.216 47.2615 24.0697 47.1445 23.8942 47.1445H18.0742V50.9173H22.5197Z" fill="white"/>
<path fill-rule="evenodd" clip-rule="evenodd" d="M56.8549 48.5488C56.2407 48.5488 56.1822 49.5432 56.8549 49.5432C57.5275 49.5432 57.4691 48.5488 56.8549 48.5488Z" fill="#FCAD39"/>
<path fill-rule="evenodd" clip-rule="evenodd" d="M24.0693 41.2953H29.9771C29.3922 38.049 24.6835 38.0198 24.0693 41.2953Z" fill="#61C6B8"/>
<path fill-rule="evenodd" clip-rule="evenodd" d="M18.6008 40.0097V38.138C18.6008 37.904 18.3961 37.7285 18.1914 37.7285H15.3545V40.0097H18.6008Z" fill="#FFC107"/>
<path fill-rule="evenodd" clip-rule="evenodd" d="M26.1754 58.4043H19.1855V61.6506C19.1855 62.2063 19.6827 62.7035 20.2384 62.7035H25.1226C25.6782 62.7035 26.1754 62.2063 26.1754 61.6506V58.4043Z" fill="white"/>
</g>
<defs>
<clipPath id="clip0_11032_52481">
<rect width="78" height="78" fill="white"/>
</clipPath>
</defs>
</svg>
