<svg width="125" height="125" viewBox="0 0 125 125" fill="none" xmlns="http://www.w3.org/2000/svg">
<path d="M63.8306 17.3969H43.3821V8.94106C43.3821 7.33077 44.6835 6.0293 46.2938 6.0293H60.9262C62.5365 6.0293 63.838 7.33077 63.838 8.94106L63.8306 17.3969Z" fill="#BAC5D6"/>
<path d="M14.8452 19.5371H92.3599V114.25H14.8452V19.5371Z" fill="#FFC107"/>
<path d="M22.4846 27.1768H84.7273V106.618H22.4846V27.1768Z" fill="#EDF6FF"/>
<path d="M72.8009 30.6178H34.4038V16.7428C34.4038 14.8678 35.9259 13.3457 37.8009 13.3457H69.4112C71.2862 13.3457 72.8082 14.8678 72.8082 16.7428V30.6178H72.8009Z" fill="#D1DCF0"/>
<path d="M73.9264 47.7796H48.3087C47.669 47.7796 47.147 47.2575 47.147 46.6178C47.147 45.9781 47.669 45.4561 48.3087 45.4561H73.9264C74.5661 45.4561 75.0881 45.9781 75.0881 46.6178C75.0881 47.2575 74.5661 47.7796 73.9264 47.7796Z" fill="#1F2A37"/>
<path d="M35.7061 49.1762C35.412 49.1762 35.1106 49.0659 34.8826 48.838L32.4635 46.4189C32.0076 45.963 32.0076 45.2277 32.4635 44.7718C32.9194 44.3159 33.6547 44.3159 34.1106 44.7718L35.7061 46.3674L40.4856 41.588C40.9414 41.1321 41.6767 41.1321 42.1326 41.588C42.5885 42.0439 42.5885 42.7792 42.1326 43.2351L36.5297 48.838C36.3017 49.0659 36.0003 49.1762 35.7061 49.1762Z" fill="#1F2A37"/>
<path d="M73.9264 62.8011H48.3087C47.669 62.8011 47.147 62.279 47.147 61.6393C47.147 60.9996 47.669 60.4775 48.3087 60.4775H73.9264C74.5661 60.4775 75.0881 60.9996 75.0881 61.6393C75.0881 62.279 74.5661 62.8011 73.9264 62.8011Z" fill="#1F2A37"/>
<path d="M35.7057 64.1987C35.4115 64.1987 35.1101 64.0811 34.8821 63.8605L32.463 61.4413C32.0071 60.9855 32.0071 60.2502 32.463 59.7943C32.9189 59.3384 33.6542 59.3384 34.1101 59.7943L35.7057 61.3899L40.4851 56.6105C40.9409 56.1546 41.6762 56.1546 42.1321 56.6105C42.588 57.0663 42.588 57.8016 42.1321 58.2575L36.5292 63.8605C36.3012 64.0884 35.9998 64.1987 35.7057 64.1987Z" fill="#1F2A37"/>
<path d="M73.9264 77.8157H48.3087C47.669 77.8157 47.147 77.2937 47.147 76.654C47.147 76.0142 47.669 75.4922 48.3087 75.4922H73.9264C74.5661 75.4922 75.0881 76.0142 75.0881 76.654C75.0881 77.2937 74.5661 77.8157 73.9264 77.8157Z" fill="#1F2A37"/>
<path d="M35.7057 79.2202C35.4115 79.2202 35.1101 79.1099 34.8821 78.882L32.463 76.4628C32.0071 76.007 32.0071 75.2717 32.463 74.8158C32.9189 74.3599 33.6542 74.3599 34.1101 74.8158L35.7057 76.4114L40.4851 71.632C40.9409 71.1761 41.6762 71.1761 42.1321 71.632C42.588 72.0878 42.588 72.8231 42.1321 73.279L36.5292 78.882C36.3012 79.1025 35.9998 79.2202 35.7057 79.2202Z" fill="#1F2A37"/>
<path d="M73.9264 92.8382H48.3087C47.669 92.8382 47.147 92.3161 47.147 91.6764C47.147 91.0367 47.669 90.5146 48.3087 90.5146H73.9264C74.5661 90.5146 75.0881 91.0367 75.0881 91.6764C75.0881 92.3161 74.5661 92.8382 73.9264 92.8382Z" fill="#1F2A37"/>
<path d="M35.7057 94.2348C35.4115 94.2348 35.1101 94.1172 34.8821 93.8966L32.463 91.4775C32.0071 91.0216 32.0071 90.2863 32.463 89.8304C32.9189 89.3745 33.6542 89.3745 34.1101 89.8304L35.7057 91.426L40.4851 86.6466C40.9409 86.1907 41.6762 86.1907 42.1321 86.6466C42.588 87.1025 42.588 87.8378 42.1321 88.2937L36.5292 93.8966C36.3012 94.1245 35.9998 94.2348 35.7057 94.2348Z" fill="#1F2A37"/>
<g clip-path="url(#clip0_10257_109320)">
<path d="M103.836 105.579L103.823 105.585C102.309 106.746 101.668 108.721 102.207 110.549L102.213 110.562C103.073 113.467 100.943 116.398 97.9163 116.475H97.9035C95.9923 116.526 94.312 117.745 93.6771 119.547V119.553C92.6637 122.414 89.2135 123.536 86.7187 121.811C85.1696 120.753 83.1217 120.698 81.4919 121.811H81.4855C78.9908 123.529 75.5404 122.413 74.5335 119.547C73.8928 117.74 72.215 116.526 70.3071 116.475H70.2943C67.2673 116.398 65.138 113.467 65.9974 110.562L66.0038 110.549C66.5424 108.721 65.9011 106.746 64.3877 105.585L64.3748 105.579C61.9698 103.732 61.9698 100.115 64.3748 98.2676L64.3877 98.2612C65.9011 97.1004 66.5424 95.1251 65.9974 93.2973V93.2845C65.1315 90.3793 67.2672 87.4484 70.2943 87.3714H70.3071C72.2119 87.3201 73.8985 86.1016 74.5335 84.2995V84.2931C75.5403 81.4328 78.9908 80.3105 81.4855 82.0357H81.4919C83.0631 83.1196 85.141 83.1196 86.7187 82.0357C89.2386 80.2956 92.6697 81.45 93.6771 84.2931V84.2995C94.312 86.0952 95.9922 87.3202 97.9035 87.3714H97.9163C100.943 87.4484 103.073 90.3793 102.213 93.2845L102.207 93.2973C101.668 95.1251 102.309 97.1004 103.823 98.2612L103.836 98.2676C106.241 100.115 106.241 103.732 103.836 105.579Z" fill="#3EB655"/>
<path d="M84.1053 113.868C90.7031 113.868 96.0516 108.52 96.0516 101.922C96.0516 95.3241 90.7031 89.9756 84.1053 89.9756C77.5075 89.9756 72.1589 95.3241 72.1589 101.922C72.1589 108.52 77.5075 113.868 84.1053 113.868Z" fill="#8BD399"/>
<path opacity="0.1" d="M93.2779 94.2743C91.2116 92.5744 88.5679 91.5527 85.686 91.5527C79.0882 91.5527 73.7368 96.9042 73.7368 103.502C73.7368 106.384 74.7585 109.027 76.4583 111.094C73.8329 108.904 72.1606 105.61 72.1606 101.921C72.1606 95.3234 77.5075 89.9766 84.1053 89.9766C87.7936 89.9766 91.0879 91.6488 93.2779 94.2743Z" fill="black"/>
<path d="M81.2632 106.598L78.6214 103.788C77.9296 103.052 77.9653 101.894 78.7012 101.202C79.4371 100.51 80.5951 100.547 81.2864 101.282L82.5474 102.623L87.9078 96.4968C88.5722 95.7365 89.7279 95.6594 90.4888 96.3248C91.2492 96.9901 91.3259 98.1455 90.6609 98.9058L83.9722 106.55C83.2596 107.364 82.0021 107.385 81.2632 106.598Z" fill="white"/>
</g>
<defs>
<clipPath id="clip0_10257_109320">
<rect width="44.1572" height="44.1572" fill="white" transform="translate(62.0266 79.8428)"/>
</clipPath>
</defs>
</svg>
