<svg width="15" height="15" viewBox="0 0 15 15" fill="none" xmlns="http://www.w3.org/2000/svg">
<path d="M5.86875 10.5H9.1125C9.2875 10.5 9.41563 10.4406 9.49688 10.3219C9.57812 10.2031 9.61875 10.0563 9.61875 9.88125V8.5125H8.49375V9.375H6.4875V5.625H8.49375V6.50625H9.61875V5.1375C9.61875 4.9625 9.57812 4.8125 9.49688 4.6875C9.41563 4.5625 9.2875 4.5 9.1125 4.5H5.86875C5.69375 4.5 5.56563 4.5625 5.48438 4.6875C5.40312 4.8125 5.3625 4.9625 5.3625 5.1375V9.88125C5.3625 10.0563 5.40312 10.2031 5.48438 10.3219C5.56563 10.4406 5.69375 10.5 5.86875 10.5ZM7.5 15C6.475 15 5.50625 14.8031 4.59375 14.4094C3.68125 14.0156 2.88438 13.4781 2.20312 12.7969C1.52188 12.1156 0.984375 11.3188 0.590625 10.4062C0.196875 9.49375 0 8.525 0 7.5C0 6.4625 0.196875 5.4875 0.590625 4.575C0.984375 3.6625 1.52188 2.86875 2.20312 2.19375C2.88438 1.51875 3.68125 0.984375 4.59375 0.590625C5.50625 0.196875 6.475 0 7.5 0C8.5375 0 9.5125 0.196875 10.425 0.590625C11.3375 0.984375 12.1313 1.51875 12.8063 2.19375C13.4813 2.86875 14.0156 3.6625 14.4094 4.575C14.8031 5.4875 15 6.4625 15 7.5C15 8.525 14.8031 9.49375 14.4094 10.4062C14.0156 11.3188 13.4813 12.1156 12.8063 12.7969C12.1313 13.4781 11.3375 14.0156 10.425 14.4094C9.5125 14.8031 8.5375 15 7.5 15ZM7.5 13.875C9.275 13.875 10.7812 13.2531 12.0187 12.0094C13.2562 10.7656 13.875 9.2625 13.875 7.5C13.875 5.725 13.2562 4.21875 12.0187 2.98125C10.7812 1.74375 9.275 1.125 7.5 1.125C5.7375 1.125 4.23438 1.74375 2.99063 2.98125C1.74688 4.21875 1.125 5.725 1.125 7.5C1.125 9.2625 1.74688 10.7656 2.99063 12.0094C4.23438 13.2531 5.7375 13.875 7.5 13.875Z" fill="#FFC107"/>
</svg>
