<svg width="120" height="35" viewBox="0 0 120 35" fill="none" xmlns="http://www.w3.org/2000/svg">
<g clip-path="url(#clip0_10236_100402)">
<path d="M24.8048 14.9003C24.8048 14.9003 20.4092 14.6679 18.8892 17.1852C18.8892 17.1852 19.7025 21.5614 14.5517 22.4521C9.20731 23.3816 6.43829 19.3055 6.52543 18.8795C6.52543 18.8795 1.78131 10.0303 10.9791 5.99293C10.9791 5.99293 14.329 5.38297 15.9265 6.00261C16.1008 6.07039 16.2944 5.96389 16.3332 5.77993C16.5462 4.79238 17.2239 2.217 18.4438 1.47149C18.4826 1.44245 18.4826 1.39404 18.4438 1.37468C11.9376 -1.4718 3.99846 1.71354 1.22944 8.2004C0.706619 9.43968 0.270934 10.7951 0.14507 12.1409C0.14507 12.1409 -1.37499 19.6928 5.29583 24.9113C11.9763 30.1202 17.9501 27.0801 17.9501 27.0801C17.9501 27.0801 23.5171 24.9694 24.4563 19.8187L24.8048 14.9003Z" fill="#FFC107"/>
<path d="M32.8313 0.66794L25.1826 0.551758C25.1826 0.551758 20.6418 1.07458 18.9765 6.49643L18.8022 13.3802C18.8022 13.3802 23.6045 12.7993 24.0111 10.8049V7.99712C24.0111 7.99712 24.8341 5.82838 26.267 5.68315C27.6999 5.53793 31.4468 5.65411 31.4468 5.65411C32.0761 5.67347 32.9184 6.46739 33.3347 6.88371C34.3029 7.87126 34.787 9.19768 34.787 10.5725C34.787 14.4065 31.6211 14.8809 31.6211 14.8809L25.7635 15.0552L24.4177 20.6901L24.2144 20.7869L32.415 20.3512C32.415 20.3512 40.1508 18.2406 39.9087 11.2115C39.6764 4.18246 37.0429 1.95563 32.8216 0.66794H32.8313Z" fill="#FFC107"/>
<path d="M57.8104 22.4136C56.6389 22.8589 55.6998 23.0429 54.809 23.0429C53.2018 23.0429 51.6721 22.2683 51.6721 19.8866V0H39.8989V4.47303H45.9598V19.6542C45.9598 24.5339 48.4771 27.6514 53.3277 27.6514C55.7191 27.6514 57.0746 27.2642 59.0787 26.6058L57.8201 22.4039L57.8104 22.4136Z" fill="#FFC107"/>
<path d="M69.4192 16.4885C68.8286 18.3667 68.1702 20.3418 67.6571 22.2685H67.5022C66.8922 20.245 66.2726 18.299 65.5948 16.4885L62.3611 8.21045H56.6875L65.0139 26.9739L64.6363 27.9809C64.0167 29.4719 62.8161 30.4981 60.5893 30.4981C60.1149 30.4981 59.6114 30.411 59.108 30.2561L58.0817 34.6129C58.9143 34.8453 59.9019 35.0002 61.0153 35.0002C65.8853 35.0002 68.1702 32.5023 70.0485 27.6807L77.6391 8.21045H72.2366L69.4192 16.4885Z" fill="#FFC107"/>
<path d="M90.8933 8.02637C88.0275 8.02637 85.9072 9.42056 84.2419 11.0568H84.087L83.6707 8.4911H79.0137V27.7484H84.726V14.9005C86.0621 13.6031 87.098 12.8964 88.6181 12.8964C90.7094 12.8964 91.4452 14.0291 91.4452 16.5948V27.7484H97.1575V15.859C97.1575 10.9987 95.2405 8.02637 90.8837 8.02637H90.8933Z" fill="#FFC107"/>
<path d="M119.252 27.7482L111.332 16.3042L118.632 8.4909H112.397L105.319 16.2267H105.164V0.551758H99.4521V27.7482H105.164V22.8975L108.001 19.8574L113.046 27.7482H119.252Z" fill="#FFC107"/>
</g>
<defs>
<clipPath id="clip0_10236_100402">
<rect width="119.252" height="35" fill="white"/>
</clipPath>
</defs>
</svg>
